<?xml version="1.0" standalone="no"?>
<!DOCTYPE svg PUBLIC "-//W3C//DTD SVG 20010904//EN"
 "http://www.w3.org/TR/2001/REC-SVG-20010904/DTD/svg10.dtd">
<svg version="1.0" xmlns="http://www.w3.org/2000/svg"
 width="355.000000pt" height="142.000000pt" viewBox="0 0 355.000000 142.000000"
 preserveAspectRatio="xMidYMid meet">

<g transform="translate(0.000000,142.000000) scale(0.100000,-0.100000)"
fill="#000000" stroke="none">
<path d="M0 710 l0 -710 794 0 c437 0 797 4 800 8 14 24 -16 31 -133 33 -119
1 -125 2 -148 27 -35 38 -30 67 36 235 12 32 27 35 34 7 3 -10 22 -27 42 -37
34 -16 38 -16 66 -1 36 21 36 14 -1 -41 -36 -53 -37 -68 -7 -76 79 -23 105
-37 100 -56 -3 -10 0 -19 6 -19 5 0 8 -7 5 -15 -4 -8 -1 -15 5 -15 15 0 14 30
-3 63 -13 24 -13 27 1 27 13 0 13 3 3 15 -9 10 -11 32 -7 65 7 60 -4 102 -14
55 -7 -30 -7 -30 -8 -3 -1 24 -4 27 -41 26 -26 0 -44 -6 -51 -17 -9 -14 -10
-14 -5 1 7 23 -3 23 -21 1 -11 -14 -13 -15 -12 -3 5 47 -2 130 -10 125 -6 -3
-14 3 -20 12 -10 18 16 79 47 111 21 23 13 -3 -12 -37 -14 -19 -22 -40 -19
-51 7 -26 15 -26 11 0 -2 10 1 18 6 17 4 -1 16 14 25 33 10 19 22 34 28 33 6
-1 13 7 16 18 4 17 2 19 -16 13 -22 -6 -22 -6 -2 12 37 35 104 66 128 59 18
-5 19 -4 7 5 -12 9 -7 10 20 5 23 -4 30 -3 22 3 -14 10 142 27 169 18 8 -2 28
-8 44 -12 l30 -7 -25 -7 -25 -8 28 -1 c15 -1 27 -6 27 -11 0 -7 13 -8 36 -4
30 6 36 4 41 -14 3 -13 10 -19 20 -15 12 5 12 7 1 14 -8 5 -9 9 -2 9 7 0 20
-8 31 -17 10 -10 13 -14 6 -10 -7 5 -20 2 -32 -10 -19 -18 -19 -18 20 -21 24
-1 39 2 39 9 0 19 24 -6 49 -53 l23 -43 -26 30 c-16 19 -25 25 -26 15 0 -13
-2 -13 -9 -1 -6 10 -9 3 -8 -21 1 -32 4 -35 27 -33 20 2 26 -3 27 -18 3 -31
23 -46 23 -17 0 18 3 21 9 11 5 -7 4 -25 -2 -41 -8 -22 -8 -35 3 -57 11 -22
14 -24 17 -11 8 32 18 19 50 -65 48 -123 49 -132 22 -172 l-24 -35 -127 1
-128 1 0 50 c0 33 4 47 11 42 6 -3 35 2 65 12 59 20 62 30 22 86 -21 30 -15
52 15 54 22 2 22 -13 0 -19 -12 -3 -10 -5 7 -6 14 0 35 7 47 17 23 17 22 17
-37 18 -32 0 -57 -3 -54 -8 3 -4 1 -8 -5 -8 -5 0 -13 5 -16 10 -17 28 -40 -11
-37 -62 1 -15 -2 -29 -8 -33 -5 -3 -10 -16 -10 -29 0 -12 -5 -27 -11 -33 -13
-13 -20 -83 -8 -83 5 0 11 -11 15 -25 l6 -25 784 0 784 0 0 710 0 710 -1775 0
-1775 0 0 -710z m615 478 c14 -16 25 -36 25 -44 0 -28 -28 -70 -55 -82 -20 -9
-26 -18 -22 -32 3 -11 1 -20 -4 -20 -5 0 -9 8 -9 18 0 11 -14 25 -35 35 -20
10 -37 26 -40 40 -6 22 -10 24 -56 19 -45 -4 -49 -3 -49 17 0 18 6 21 40 21
25 0 40 -5 40 -12 0 -8 7 -5 15 6 14 19 15 18 15 -16 0 -28 7 -42 26 -57 15
-12 33 -21 40 -21 29 0 64 24 73 52 20 56 -21 104 -80 96 -16 -3 -29 -1 -29 3
0 9 39 16 63 11 9 -3 28 -18 42 -34z m98 35 c-18 -2 -48 -2 -65 0 -18 2 -4 4
32 4 36 0 50 -2 33 -4z m781 -19 c3 -9 6 -35 6 -59 0 -53 -8 -75 -26 -75 -8 0
-14 -9 -14 -20 0 -25 -6 -25 -35 -2 -13 11 -43 19 -71 21 -27 1 -53 6 -58 11
-9 9 -10 115 -1 130 3 6 48 10 100 10 75 0 94 -3 99 -16z m1696 -79 l0 -75
-55 0 c-42 0 -55 -3 -55 -15 0 -8 -4 -15 -10 -15 -5 0 -10 7 -10 15 0 12 -13
15 -55 15 l-55 0 0 75 0 75 120 0 120 0 0 -75z m-2647 53 c-28 -13 -36 -34
-23 -59 19 -35 61 -20 73 26 4 19 5 18 6 -2 1 -25 -23 -53 -46 -53 -21 0 -53
29 -53 48 0 21 30 52 49 51 11 0 10 -3 -6 -11z m175 5 c-16 -2 -40 -2 -55 0
-16 2 -3 4 27 4 30 0 43 -2 28 -4z m5 -30 c-13 -2 -35 -2 -50 0 -16 2 -5 4 22
4 28 0 40 -2 28 -4z m1473 -26 c4 -4 -16 -7 -45 -7 -29 0 -50 3 -47 8 6 10 82
9 92 -1z m-119 -31 c-4 -9 -12 -16 -19 -16 -9 0 -9 3 -1 11 6 6 9 19 6 28 -5
13 -3 13 7 4 7 -6 10 -19 7 -27z m-1354 17 c-13 -2 -35 -2 -50 0 -16 2 -5 4
22 4 28 0 40 -2 28 -4z m1505 -10 c-27 -2 -69 -2 -95 0 -27 2 -5 3 47 3 52 0
74 -1 48 -3z m12 -24 c0 -5 -31 -8 -70 -7 -38 1 -70 6 -70 11 0 4 32 7 70 6
39 -1 70 -6 70 -10z m-92 -26 c-10 -2 -26 -2 -35 0 -10 3 -2 5 17 5 19 0 27
-2 18 -5z m49 -20 c-20 -2 -52 -2 -70 0 -17 2 0 4 38 4 39 0 53 -2 32 -4z
m-1587 -13 c0 -5 -5 -10 -11 -10 -5 0 -7 5 -4 10 3 6 8 10 11 10 2 0 4 -4 4
-10z m40 0 c0 -5 -4 -10 -10 -10 -5 0 -10 5 -10 10 0 6 5 10 10 10 6 0 10 -4
10 -10z m55 0 c3 -5 -1 -10 -10 -10 -9 0 -13 5 -10 10 3 6 8 10 10 10 2 0 7
-4 10 -10z m2185 0 c0 -5 -5 -10 -11 -10 -5 0 -7 5 -4 10 3 6 8 10 11 10 2 0
4 -4 4 -10z m60 -6 c0 -2 -7 -4 -15 -4 -8 0 -15 4 -15 10 0 5 7 7 15 4 8 -4
15 -8 15 -10z m40 6 c0 -5 -5 -10 -11 -10 -5 0 -7 5 -4 10 3 6 8 10 11 10 2 0
4 -4 4 -10z m-2158 -25 c3 -13 1 -22 -3 -19 -9 5 -13 44 -5 44 2 0 6 -11 8
-25z m1341 18 c-13 -2 -35 -2 -50 0 -16 2 -5 4 22 4 28 0 40 -2 28 -4z m628
-15 c-4 -12 -13 -23 -20 -24 -6 -1 -7 0 -1 3 5 2 10 13 10 24 0 10 4 19 10 19
5 0 6 -9 1 -22z m-2276 -18 c-3 -5 -25 -9 -48 -9 l-42 2 35 7 c52 11 62 11 55
0z m40 0 c3 -5 1 -10 -4 -10 -6 0 -11 5 -11 10 0 6 2 10 4 10 3 0 8 -4 11 -10z
m205 0 c0 -5 -2 -10 -4 -10 -3 0 -8 5 -11 10 -3 6 -1 10 4 10 6 0 11 -4 11
-10z m245 0 c4 -6 -5 -10 -20 -10 -15 0 -24 4 -20 10 3 6 12 10 20 10 8 0 17
-4 20 -10z m488 3 c-29 -2 -77 -2 -105 0 -29 2 -6 3 52 3 58 0 81 -1 53 -3z
m581 -1 c2 -4 -12 -6 -32 -4 -56 5 -62 10 -15 11 23 1 44 -3 47 -7z m58 -4
c-9 -9 -15 -9 -24 0 -9 9 -7 12 12 12 19 0 21 -3 12 -12z m76 5 c-10 -2 -28
-2 -40 0 -13 2 -5 4 17 4 22 1 32 -1 23 -4z m441 -2 c13 -3 -14 -6 -59 -6 -45
0 -72 3 -59 6 13 4 40 7 59 7 19 0 46 -3 59 -7z m96 -1 c3 -6 -4 -10 -17 -10
-18 0 -20 2 -8 10 19 12 18 12 25 0z m85 0 c0 -5 -2 -10 -4 -10 -3 0 -8 5 -11
10 -3 6 -1 10 4 10 6 0 11 -4 11 -10z m50 6 c0 -3 -4 -8 -10 -11 -5 -3 -10 -1
-10 4 0 6 5 11 10 11 6 0 10 -2 10 -4z m100 -6 c0 -5 -4 -10 -9 -10 -6 0 -13
5 -16 10 -3 6 1 10 9 10 9 0 16 -4 16 -10z m64 1 c3 -5 -6 -8 -19 -8 -14 0
-25 3 -25 8 0 5 9 9 19 9 11 0 22 -4 25 -9z m51 -1 c-3 -5 -10 -10 -16 -10 -5
0 -9 5 -9 10 0 6 7 10 16 10 8 0 12 -4 9 -10z m-2704 -230 c5 0 6 -6 3 -14 -3
-8 0 -17 6 -21 7 -4 8 -11 2 -18 -6 -7 -7 -45 -4 -87 4 -54 8 -68 13 -50 6 23
7 23 8 3 1 -12 -3 -24 -8 -27 -10 -7 -3 -117 9 -129 4 -5 148 -8 320 -8 196 0
309 -4 303 -10 -5 -5 -89 -10 -186 -10 l-177 -1 -2 -41 -1 -42 -7 45 c-6 38
-7 40 -10 15 l-2 -30 -8 30 c-5 19 -8 -15 -8 -90 0 -167 1 -170 68 -170 56 0
70 -7 70 -37 0 -15 -9 -18 -57 -18 -32 0 -63 4 -69 8 -28 18 -37 62 -42 194
l-5 138 -96 0 c-53 0 -102 4 -109 8 -17 11 -28 87 -52 339 -18 196 -18 209 -2
233 17 24 17 23 26 -92 5 -65 12 -118 17 -118z m-4 198 c-3 -7 -5 -2 -5 12 0
14 2 19 5 13 2 -7 2 -19 0 -25z m1880 15 c4 -10 6 -128 3 -263 l-6 -245 -2
257 c-2 235 -3 257 -19 261 -17 4 -17 5 -1 6 10 0 21 -7 25 -16z m923 -13 c9
-16 -5 -192 -36 -478 -10 -93 -13 -95 -132 -93 l-102 2 0 -114 c0 -116 -17
-202 -42 -218 -16 -11 -109 -11 -124 -1 -8 5 -7 16 2 37 7 17 14 23 14 15 1
-10 3 -11 7 -2 2 6 14 12 26 11 21 0 21 -1 2 -9 -15 -7 -9 -9 24 -7 50 2 65
22 29 37 -22 10 -22 10 5 5 l27 -5 0 119 c0 104 -2 120 -17 126 -10 4 -100 6
-200 6 -111 -1 -184 3 -188 9 -4 6 104 9 312 7 277 -2 319 0 320 13 4 49 8 66
17 72 6 4 6 11 -1 20 -7 9 -7 43 -1 103 5 50 6 102 3 118 -2 15 -1 27 4 27 14
0 24 199 11 215 -9 11 -7 12 10 8 11 -3 25 -14 30 -23z m-2158 -25 c3 -13 1
-22 -3 -19 -9 5 -13 44 -5 44 2 0 6 -11 8 -25z m238 -22 c-4 -42 -5 -44 -8
-15 -3 30 2 62 10 62 2 0 1 -21 -2 -47z m352 18 c12 -16 35 -52 50 -80 l28
-51 64 0 63 0 30 63 c34 70 68 106 84 90 14 -14 1 -58 -25 -85 -36 -37 -68
-96 -62 -115 5 -16 -3 -18 -94 -19 -85 -1 -98 1 -91 14 9 16 -43 110 -65 119
-17 6 -37 60 -30 78 8 22 21 18 48 -14z m886 2 c1 -24 0 -25 -9 -10 -5 9 -7
22 -4 27 9 15 10 13 13 -17z m-1459 -92 c1 -35 -5 -22 -12 24 -5 28 -4 34 3
20 5 -11 9 -31 9 -44z m2088 -43 c-3 -8 -6 -5 -6 6 -1 11 2 17 5 13 3 -3 4
-12 1 -19z m-2079 -48 c-1 -22 -5 -40 -10 -40 -10 0 -10 8 -2 49 9 43 14 39
12 -9z m1425 -51 c-6 -6 -9 4 -7 23 3 56 7 65 11 24 3 -21 0 -43 -4 -47z
m-946 25 c-3 -3 -12 -4 -19 -1 -8 3 -5 6 6 6 11 1 17 -2 13 -5z m66 -1 c-7 -2
-21 -2 -30 0 -10 3 -4 5 12 5 17 0 24 -2 18 -5z m-196 -19 c-3 -3 -12 -4 -19
-1 -8 3 -5 6 6 6 11 1 17 -2 13 -5z m70 0 c-3 -3 -12 -4 -19 -1 -8 3 -5 6 6 6
11 1 17 -2 13 -5z m80 0 c-3 -3 -12 -4 -19 -1 -8 3 -5 6 6 6 11 1 17 -2 13 -5z
m-130 -20 c-3 -3 -12 -4 -19 -1 -8 3 -5 6 6 6 11 1 17 -2 13 -5z m-10 -40 c-3
-3 -12 -4 -19 -1 -8 3 -5 6 6 6 11 1 17 -2 13 -5z m528 -4 c13 -6 15 -9 5 -9
-8 0 -22 4 -30 9 -18 12 -2 12 25 0z m526 -55 l-9 -50 -1 46 c0 25 2 49 6 52
11 12 12 3 4 -48z m-1398 -17 c3 -21 2 -38 -2 -38 -4 0 -8 19 -10 42 -3 51 4
48 12 -4z m-566 6 c-3 -3 -12 -4 -19 -1 -8 3 -5 6 6 6 11 1 17 -2 13 -5z m766
-86 c3 -33 2 -58 -4 -58 -5 0 -9 28 -9 62 0 75 5 73 13 -4z m-660 35 c-13 -2
-33 -2 -45 0 -13 2 -3 4 22 4 25 0 35 -2 23 -4z m144 1 c-3 -3 -12 -4 -19 -1
-8 3 -5 6 6 6 11 1 17 -2 13 -5z m2070 0 c-3 -3 -12 -4 -19 -1 -8 3 -5 6 6 6
11 1 17 -2 13 -5z m156 -1 c-24 -2 -62 -2 -85 0 -24 2 -5 4 42 4 47 0 66 -2
43 -4z m-2196 -21 c20 -12 20 -53 1 -66 -35 -22 -74 27 -48 59 14 17 29 19 47
7z m2007 -14 c14 -23 -3 -52 -32 -56 -32 -5 -49 34 -26 59 21 23 42 21 58 -3z
m511 -51 c18 -15 28 -36 32 -65 3 -23 10 -42 15 -42 5 0 7 -42 6 -92 l-3 -93
-105 0 -105 0 -3 26 c-2 17 -11 29 -23 32 -10 3 -19 11 -18 19 0 10 2 10 6 1
11 -28 33 -13 35 25 1 23 4 13 7 -28 l6 -65 83 -1 c45 -1 82 1 82 6 0 4 -12 7
-27 8 -77 0 -135 5 -110 9 15 2 27 10 27 18 0 18 50 14 51 -5 0 -10 3 -8 9 5
7 18 8 19 15 2 9 -22 26 -22 19 1 -5 14 -3 14 10 -2 16 -19 16 -19 16 2 0 21
-5 22 -75 22 -60 0 -76 -3 -85 -17 -10 -16 -10 -16 -8 2 3 18 12 20 92 23 l89
3 -6 -41 c-3 -23 -1 -38 4 -34 5 3 9 41 9 85 l0 79 -100 0 c-70 0 -100 -4
-100 -12 0 -6 -3 -8 -6 -5 -4 4 -1 13 6 22 7 8 14 25 15 38 1 12 3 28 4 35 0
7 12 24 26 37 31 32 75 32 110 2z m-1030 3 c3 -5 1 -10 -4 -10 -6 0 -11 5 -11
10 0 6 2 10 4 10 3 0 8 -4 11 -10z m-869 -34 c12 -12 11 -17 -5 -37 -17 -21
-49 -19 -35 2 3 5 9 7 14 4 4 -3 11 2 14 11 4 12 2 15 -9 10 -15 -5 -21 5 -8
17 9 10 13 9 29 -7z m859 4 c-3 -5 -14 -10 -23 -9 -14 0 -13 2 3 9 27 11 27
11 20 0z m-955 -4 c0 -3 -4 -8 -10 -11 -5 -3 -10 -1 -10 4 0 6 5 11 10 11 6 0
10 -2 10 -4z m50 -6 c0 -5 -2 -10 -4 -10 -3 0 -8 5 -11 10 -3 6 -1 10 4 10 6
0 11 -4 11 -10z m-933 -42 c-3 -8 -6 -5 -6 6 -1 11 2 17 5 13 3 -3 4 -12 1
-19z m1740 0 c-3 -8 -6 -5 -6 6 -1 11 2 17 5 13 3 -3 4 -12 1 -19z m20 0 c-3
-8 -6 -5 -6 6 -1 11 2 17 5 13 3 -3 4 -12 1 -19z m920 -20 c-3 -8 -6 -5 -6 6
-1 11 2 17 5 13 3 -3 4 -12 1 -19z m-2717 -48 c0 -45 2 -50 23 -51 l22 -2 -22
-4 c-21 -4 -23 -10 -23 -59 l0 -54 -85 0 -85 0 0 110 0 110 85 0 85 0 0 -50z
m37 28 c-3 -8 -6 -5 -6 6 -1 11 2 17 5 13 3 -3 4 -12 1 -19z m390 -60 c-2 -18
-4 -6 -4 27 0 33 2 48 4 33 2 -15 2 -42 0 -60z m599 45 c-11 -11 -19 6 -11 24
8 17 8 17 12 0 3 -10 2 -21 -1 -24z m-744 -74 c6 -4 8 -15 3 -25 -7 -17 -9
-16 -15 6 -5 14 -8 43 -7 65 l0 40 4 -40 c3 -22 9 -43 15 -46z m2528 41 c0
-23 -25 -27 -33 -6 -7 16 1 26 20 26 7 0 13 -9 13 -20z m66 9 c10 -17 -13 -36
-27 -22 -12 12 -4 33 11 33 5 0 12 -5 16 -11z m69 -9 c0 -8 -8 -16 -17 -18
-13 -2 -18 3 -18 18 0 15 5 20 18 18 9 -2 17 -10 17 -18z m-228 -22 c-3 -8 -6
-5 -6 6 -1 11 2 17 5 13 3 -3 4 -12 1 -19z m-1540 -70 c-2 -13 -4 -5 -4 17 -1
22 1 32 4 23 2 -10 2 -28 0 -40z m1628 22 c3 -5 1 -10 -4 -10 -6 0 -11 5 -11
10 0 6 2 10 4 10 3 0 8 -4 11 -10z m-2371 -52 c6 -4 7 -10 3 -15 -10 -9 -27
16 -26 37 1 13 1 13 6 0 3 -8 11 -18 17 -22z m180 6 c28 -11 38 -41 20 -58
-18 -19 -75 -21 -92 -4 -37 37 16 83 72 62z m-332 -26 c-7 -7 -12 -8 -12 -2 0
14 12 26 19 19 2 -3 -1 -11 -7 -17z m2108 12 c0 -5 -4 -10 -10 -10 -5 0 -10 5
-10 10 0 6 5 10 10 10 6 0 10 -4 10 -10z m-2040 -17 c0 -10 -4 -14 -8 -8 -4 6
-11 13 -16 18 -5 4 -2 7 7 7 10 0 17 -8 17 -17z m2083 10 c-7 -2 -19 -2 -25 0
-7 3 -2 5 12 5 14 0 19 -2 13 -5z m-108 -43 c-3 -6 -1 -10 5 -10 6 0 8 -5 5
-11 -10 -15 -16 -6 -20 32 -3 27 -2 30 6 16 6 -9 7 -22 4 -27z m-75 -10 c0 -6
-15 -10 -34 -8 -19 1 -33 5 -31 8 6 10 65 10 65 0z m40 0 c0 -5 -4 -10 -10
-10 -5 0 -10 5 -10 10 0 6 5 10 10 10 6 0 10 -4 10 -10z"/>
<path d="M380 1138 c0 -4 14 -8 30 -8 17 0 30 4 30 8 0 5 -13 8 -30 8 -16 0
-30 -3 -30 -8z"/>
<path d="M1307 1203 c-4 -3 -7 -33 -7 -65 l0 -58 54 0 c36 0 58 -5 67 -16 11
-14 13 -14 21 0 5 9 15 16 22 16 17 0 26 22 26 65 0 62 -4 65 -94 65 -46 0
-86 -3 -89 -7z m93 -54 c-11 -38 -26 -55 -17 -19 4 14 7 31 7 38 0 6 4 12 9
12 6 0 6 -12 1 -31z m-55 -3 c0 -18 -3 -22 -13 -14 -9 8 -9 14 -1 24 15 18 14
18 14 -10z m109 8 c7 -18 0 -34 -16 -34 -7 0 -7 4 1 13 8 10 7 17 -1 25 -8 8
-9 12 -1 12 6 0 14 -7 17 -16z"/>
<path d="M2960 1125 l0 -65 111 0 110 0 -3 63 -3 62 -107 3 -108 3 0 -66z
m119 4 c-14 -41 -35 -67 -24 -29 14 47 26 73 30 68 3 -3 0 -20 -6 -39z m60
-25 c-6 -8 -14 -12 -17 -9 -3 2 1 11 7 19 8 10 9 16 1 21 -5 3 -10 11 -10 18
0 6 7 1 16 -11 13 -18 13 -26 3 -38z m-127 34 c-8 -8 -9 -15 -1 -25 8 -9 8
-13 0 -13 -18 0 -26 31 -10 41 20 12 25 11 11 -3z"/>
<path d="M3217 420 c-17 -14 -26 -32 -29 -60 -5 -52 8 -52 17 0 7 40 27 60 59
60 26 0 56 -38 56 -70 0 -16 5 -30 10 -30 13 0 13 43 -1 73 -11 24 -47 47 -73
47 -7 0 -25 -9 -39 -20z"/>
<path d="M3232 398 c-5 -7 -12 -28 -14 -45 l-5 -33 49 0 c43 0 48 2 48 23 0
49 -52 86 -78 55z"/>
<path d="M240 220 l0 -100 75 0 75 0 0 99 0 98 -75 2 -75 2 0 -101z m17 58
c-3 -8 -6 -5 -6 6 -1 11 2 17 5 13 3 -3 4 -12 1 -19z m43 7 c0 -8 -7 -15 -15
-15 -8 0 -15 7 -15 15 0 8 7 15 15 15 8 0 15 -7 15 -15z m27 -7 c-3 -8 -6 -5
-6 6 -1 11 2 17 5 13 3 -3 4 -12 1 -19z m20 0 c-3 -8 -6 -5 -6 6 -1 11 2 17 5
13 3 -3 4 -12 1 -19z m30 0 c-3 -8 -6 -5 -6 6 -1 11 2 17 5 13 3 -3 4 -12 1
-19z m-99 -40 c-6 -18 -28 -21 -28 -4 0 9 7 16 16 16 9 0 14 -5 12 -12z m72
-3 c0 -8 -7 -15 -15 -15 -8 0 -15 7 -15 15 0 8 7 15 15 15 8 0 15 -7 15 -15z
m-93 -47 c-3 -8 -6 -5 -6 6 -1 11 2 17 5 13 3 -3 4 -12 1 -19z m20 0 c-3 -8
-6 -5 -6 6 -1 11 2 17 5 13 3 -3 4 -12 1 -19z m30 0 c-3 -8 -6 -5 -6 6 -1 11
2 17 5 13 3 -3 4 -12 1 -19z m43 7 c0 -8 -7 -15 -15 -15 -8 0 -15 7 -15 15 0
8 7 15 15 15 8 0 15 -7 15 -15z m27 -7 c-3 -8 -6 -5 -6 6 -1 11 2 17 5 13 3
-3 4 -12 1 -19z m-99 -36 c2 -7 -3 -12 -12 -12 -9 0 -16 7 -16 16 0 17 22 14
28 -4z m33 9 c7 11 9 10 9 -3 0 -10 -7 -18 -15 -18 -8 0 -15 8 -14 18 0 12 2
13 6 3 5 -11 7 -11 14 0z m36 -13 c-3 -8 -6 -5 -6 6 -1 11 2 17 5 13 3 -3 4
-12 1 -19z"/>
<path d="M3250 260 c0 -5 5 -10 10 -10 6 0 10 5 10 10 0 6 -4 10 -10 10 -5 0
-10 -4 -10 -10z"/>
<path d="M1760 640 c0 -5 18 -10 40 -10 22 0 40 5 40 10 0 6 -18 10 -40 10
-22 0 -40 -4 -40 -10z"/>
<path d="M1580 610 c-8 -5 -12 -12 -9 -15 4 -3 12 1 19 10 14 17 11 19 -10 5z"/>
<path d="M1540 582 c0 -10 51 -24 59 -16 7 6 -2 12 -32 19 -16 4 -27 3 -27 -3z"/>
<path d="M1523 557 c0 -8 14 -14 36 -14 l36 -1 -34 14 c-40 17 -38 17 -38 1z"/>
<path d="M1924 511 c0 -11 11 -17 33 -18 25 -1 30 2 26 14 -5 12 -7 12 -14 2
-6 -11 -9 -10 -14 2 -8 20 -31 20 -31 0z"/>
<path d="M1490 489 c-13 -24 -4 -41 10 -19 10 16 13 40 5 40 -2 0 -9 -9 -15
-21z"/>
<path d="M1516 483 c-11 -11 -6 -23 9 -23 8 0 15 4 15 9 0 13 -16 22 -24 14z"/>
<path d="M1930 194 c0 -31 23 -28 28 4 2 15 -2 22 -12 22 -11 0 -16 -9 -16
-26z"/>
<path d="M1916 123 c-3 -7 -1 -13 5 -13 6 0 8 -9 4 -21 -11 -35 -13 -69 -3
-63 5 3 15 -2 23 -12 7 -11 16 -16 20 -12 4 3 -3 16 -14 27 -19 19 -21 46 -6
97 5 16 -23 13 -29 -3z"/>
</g>
</svg>
