<?xml version="1.0" standalone="no"?>
<!DOCTYPE svg PUBLIC "-//W3C//DTD SVG 20010904//EN"
 "http://www.w3.org/TR/2001/REC-SVG-20010904/DTD/svg10.dtd">
<svg version="1.0" xmlns="http://www.w3.org/2000/svg"
 width="236.000000pt" height="177.000000pt" viewBox="0 0 236.000000 177.000000"
 preserveAspectRatio="xMidYMid meet">

<g transform="translate(0.000000,177.000000) scale(0.100000,-0.100000)"
fill="#000000" stroke="none">
<path d="M1273 1453 c-10 -3 -13 -47 -13 -169 0 -156 1 -164 19 -164 35 0 29
-14 -20 -50 -31 -23 -44 -37 -36 -42 8 -5 6 -8 -5 -8 -9 0 -20 -5 -24 -12 -5
-7 -2 -9 7 -4 8 4 5 0 -6 -9 -15 -12 -40 -15 -105 -14 -47 1 -88 6 -92 12 -6
11 35 81 63 107 25 23 59 92 59 118 0 32 -35 92 -68 117 -34 25 -112 26 -162
2 -20 -10 -61 -19 -92 -21 -49 -4 -57 -2 -61 15 -6 21 -37 25 -55 7 -9 -9 -15
-9 -24 0 -19 19 -46 14 -60 -10 -8 -14 -23 -23 -38 -23 -21 0 -26 -5 -28 -31
-2 -22 -9 -34 -23 -37 -22 -6 -27 -52 -6 -60 10 -4 10 -7 -1 -18 -18 -19 -15
-47 8 -61 11 -7 20 -23 20 -35 0 -25 17 -39 42 -35 13 2 18 -4 18 -22 l0 -26
-120 0 -120 0 0 -45 0 -45 167 0 167 0 191 -190 191 -190 62 0 c48 0 62 -3 62
-15 0 -9 9 -15 25 -15 16 0 25 6 25 15 0 12 14 15 70 15 58 0 71 3 80 19 14
27 13 37 -6 55 -11 12 -36 16 -97 16 l-82 0 145 145 145 145 262 0 263 0 0 45
0 45 -105 0 -105 0 -1 28 c-2 62 3 98 17 108 19 15 21 313 2 332 -9 9 -83 12
-277 11 -147 0 -272 -3 -278 -6z m537 -153 c0 -110 -2 -130 -15 -130 -9 0 -18
-7 -21 -15 -8 -19 -74 -21 -75 -2 -1 6 0 27 1 45 1 21 -4 34 -14 38 -20 8 -46
-13 -46 -35 0 -10 -11 -27 -25 -39 -24 -21 -35 -22 -180 -22 l-155 0 0 145 0
145 265 0 265 0 0 -130z m-995 -8 c-3 -3 -11 0 -18 7 -9 10 -8 11 6 5 10 -3
15 -9 12 -12z m224 -6 c31 -33 38 -87 15 -125 -10 -17 -22 -31 -26 -31 -4 0
-8 -8 -8 -17 0 -9 -3 -13 -6 -10 -9 8 -61 -28 -99 -69 -29 -32 -31 -32 -53
-16 -19 15 -21 21 -12 51 5 19 7 48 3 65 -3 17 -6 42 -5 56 2 45 -4 51 -35 35
-26 -14 -42 -7 -43 16 0 8 67 5 75 -3 4 -3 23 11 42 33 32 35 40 39 82 39 37
0 52 -5 70 -24z m-224 -15 c3 -5 2 -12 -3 -15 -5 -3 -9 1 -9 9 0 17 3 19 12 6z
m-105 -15 c0 -2 -8 -10 -17 -17 -16 -13 -17 -12 -4 4 13 16 21 21 21 13z m50
-50 c0 -2 -8 -10 -17 -17 -16 -13 -17 -12 -4 4 13 16 21 21 21 13z m-71 -79
c-2 -1 -15 -11 -29 -22 l-25 -20 19 23 c11 12 24 22 29 22 6 0 8 -1 6 -3z
m102 -41 c-9 -11 -9 -15 1 -19 7 -2 -4 -6 -24 -8 -34 -5 -36 -3 -23 11 8 9 12
19 9 22 -3 3 0 9 7 14 8 5 10 3 5 -7 -4 -8 -1 -6 6 3 8 11 16 14 22 8 6 -6 5
-15 -3 -24z m839 2 c0 -31 0 -31 -20 -13 -20 18 -21 18 -58 -17 -34 -32 -92
-59 -167 -76 -39 -9 -154 0 -137 11 7 5 9 13 6 19 -5 7 -2 8 6 3 8 -5 19 0 30
15 18 24 46 19 36 -6 -3 -8 1 -14 9 -14 9 0 15 10 16 23 0 16 2 18 7 7 4 -8
17 -15 28 -16 16 0 21 5 19 20 -5 41 -16 53 -47 54 -16 0 -33 4 -37 8 -3 4 6
4 22 2 15 -3 27 -1 27 3 0 5 59 9 130 9 l130 0 0 -32z m130 22 c0 -5 -7 -10
-15 -10 -23 0 -30 -29 -11 -43 12 -9 15 -20 10 -45 -8 -39 -32 -42 -39 -4 -4
15 -10 44 -14 64 -5 20 -6 40 -3 43 10 9 72 5 72 -5z m-950 -120 c0 -5 -10
-10 -22 -10 -19 0 -20 2 -8 10 19 13 30 13 30 0z m34 -16 c3 -8 2 -12 -4 -9
-6 3 -10 10 -10 16 0 14 7 11 14 -7z m376 -8 c0 -2 -8 -10 -17 -17 -16 -13
-17 -12 -4 4 13 16 21 21 21 13z m-2 -113 c-21 -20 -39 -35 -41 -32 -3 2 -8
19 -12 37 l-7 32 49 0 48 0 -37 -37z m83 -44 c-23 -23 -44 -39 -47 -36 -5 5
72 77 83 77 4 0 -12 -18 -36 -41z"/>
<path d="M1190 300 c0 -29 -1 -30 -51 -30 -28 0 -59 -5 -69 -10 -24 -13 -54
-75 -46 -95 6 -17 56 -21 56 -5 0 6 5 10 11 10 5 0 7 -4 4 -10 -12 -19 50 -10
68 10 13 15 14 20 3 20 -18 0 -30 30 -17 43 10 10 117 11 132 1 5 -3 6 -23 3
-45 -6 -37 -5 -39 20 -39 31 0 44 24 28 51 -14 22 -16 49 -4 49 5 0 16 -6 26
-13 15 -11 16 -17 7 -35 -15 -28 -4 -52 25 -52 35 0 39 24 13 67 -31 50 -35
53 -101 53 -58 0 -58 0 -58 30 0 25 -4 30 -25 30 -21 0 -25 -5 -25 -30z m-70
-64 c0 -2 -6 -15 -14 -30 -12 -25 -14 -25 -29 -8 -13 14 -14 21 -5 30 11 11
48 17 48 8z"/>
</g>
</svg>
