<?xml version="1.0" standalone="no"?>
<!DOCTYPE svg PUBLIC "-//W3C//DTD SVG 20010904//EN"
 "http://www.w3.org/TR/2001/REC-SVG-20010904/DTD/svg10.dtd">
<svg version="1.0" xmlns="http://www.w3.org/2000/svg"
 width="300.000000pt" height="168.000000pt" viewBox="0 0 300.000000 168.000000"
 preserveAspectRatio="xMidYMid meet">

<g transform="translate(0.000000,168.000000) scale(0.100000,-0.100000)"
fill="#000000" stroke="none">
<path d="M0 840 l0 -840 213 1 c185 0 207 2 172 13 -22 7 -50 18 -63 25 -30
16 -62 69 -62 101 0 22 3 21 23 -15 48 -84 120 -110 307 -110 136 1 146 3 265
50 19 8 19 7 -1 -14 -11 -12 -38 -29 -60 -36 -34 -12 112 -14 1084 -15 l1122
0 0 265 c0 146 -4 265 -8 265 -4 0 -46 -16 -92 -35 -47 -19 -96 -34 -110 -34
-14 0 28 19 93 41 l117 41 0 569 0 568 -1500 0 -1500 0 0 -840z m1597 490 c36
-21 47 -51 48 -120 0 -101 -67 -176 -154 -173 -87 3 -106 6 -89 10 16 4 16 6
-3 26 -52 54 -62 132 -28 208 l21 47 62 -5 c45 -4 66 -1 81 11 25 20 24 20 62
-4z m-289 -90 c11 -1 8 -6 -10 -16 -16 -8 -28 -22 -28 -32 0 -13 -2 -14 -9 -3
-14 22 -165 -95 -226 -175 -8 -11 -14 -14 -15 -6 0 22 80 100 172 168 48 35
88 70 89 77 0 9 2 9 6 0 2 -7 12 -13 21 -13z m489 -55 c88 -64 161 -132 179
-167 20 -39 17 -48 -5 -13 -26 43 -65 80 -156 147 -70 53 -80 58 -86 41 -7
-16 -8 -16 -8 -1 -1 9 -11 24 -23 33 l-23 16 27 -4 c15 -1 58 -25 95 -52z
m-174 -142 c-7 -2 -19 -2 -25 0 -7 3 -2 5 12 5 14 0 19 -2 13 -5z m50 -10 c-7
-2 -19 -2 -25 0 -7 3 -2 5 12 5 14 0 19 -2 13 -5z m68 -26 c56 -37 48 -98 -16
-128 -19 -10 -19 -9 1 8 55 49 53 92 -4 123 -20 10 -32 19 -26 20 6 0 26 -10
45 -23z m-459 -3 c-47 -32 -48 -77 -3 -111 9 -7 11 -12 4 -13 -18 0 -53 50
-53 76 0 21 42 63 65 64 5 0 -1 -7 -13 -16z m258 -15 c0 -22 -32 -41 -54 -33
-9 4 -16 18 -16 33 0 25 3 27 35 23 26 -3 35 -9 35 -23z m296 -226 c26 -43 67
-106 92 -140 24 -35 41 -63 39 -63 -9 0 -122 161 -157 223 -46 83 -30 70 26
-20z m-635 19 c-11 -21 -56 -89 -101 -151 l-81 -113 20 -22 c26 -28 27 -40 2
-26 -11 5 -44 17 -73 24 l-53 15 41 0 c29 1 46 8 61 24 20 21 111 155 167 245
33 52 43 55 17 4z m-538 -239 c-13 -2 -33 -2 -45 0 -13 2 -3 4 22 4 25 0 35
-2 23 -4z m1393 -34 c27 -1 31 -3 14 -6 -13 -3 -46 -13 -72 -24 -50 -20 -64
-11 -26 16 20 14 21 17 9 38 l-14 22 25 -22 c16 -15 38 -23 64 -24z m379 32
c17 -3 -22 -6 -85 -6 -72 -1 -98 2 -70 6 59 8 118 8 155 0z m-2296 -46 c52
-17 90 -35 85 -38 -10 -6 -200 65 -212 79 -4 4 2 4 13 -1 11 -4 62 -22 114
-40z m444 38 c-7 -2 -19 -2 -25 0 -7 3 -2 5 12 5 14 0 19 -2 13 -5z m180 0
c-7 -2 -21 -2 -30 0 -10 3 -4 5 12 5 17 0 24 -2 18 -5z m64 -9 c-3 -3 -12 -4
-19 -1 -8 3 -5 6 6 6 11 1 17 -2 13 -5z m1380 0 c-3 -3 -12 -4 -19 -1 -8 3 -5
6 6 6 11 1 17 -2 13 -5z m-54 -11 c-7 -2 -21 -2 -30 0 -10 3 -4 5 12 5 17 0
24 -2 18 -5z m-1615 -30 c-10 -2 -28 -2 -40 0 -13 2 -5 4 17 4 22 1 32 -1 23
-4z m1985 0 c-13 -2 -35 -2 -50 0 -16 2 -5 4 22 4 28 0 40 -2 28 -4z m-2159
-23 c-87 -17 -162 -45 -151 -57 3 -2 16 3 30 11 24 16 57 13 57 -5 0 -18 -41
-49 -65 -49 -18 0 -25 5 -25 20 0 11 -5 20 -11 20 -22 0 12 29 49 41 55 19
143 37 177 37 17 0 -11 -8 -61 -18z m2352 -5 c67 -18 108 -43 112 -71 2 -13
-2 -11 -13 8 -10 19 -28 31 -58 38 -23 6 -58 15 -77 21 -19 5 -55 14 -80 19
l-45 9 51 -4 c28 -3 77 -12 110 -20z m74 -50 c5 -3 10 -17 10 -30 0 -21 -3
-23 -30 -15 -29 8 -60 32 -60 45 0 3 5 3 12 -1 7 -5 9 -2 5 8 -5 14 -1 15 23
8 16 -5 34 -11 40 -15z m-135 -24 c3 -5 1 -12 -5 -16 -5 -3 -10 1 -10 9 0 18
6 21 15 7z m-2285 -31 c14 -4 20 -8 15 -9 -6 -1 -17 -17 -24 -36 -7 -19 -27
-51 -46 -71 -29 -30 -37 -34 -54 -24 -39 20 -22 85 34 132 22 19 37 20 75 8z
m2346 -8 c50 -42 69 -107 39 -132 -13 -11 -20 -10 -42 6 -28 21 -88 122 -78
132 3 3 5 -1 5 -9 1 -10 3 -9 11 4 13 22 38 22 65 -1z m-2249 2 c26 -7 34 -43
21 -91 -9 -34 -40 -73 -56 -73 -29 0 -36 103 -10 153 10 19 13 19 45 11z m143
-4 c0 -5 -4 -10 -10 -10 -5 0 -10 5 -10 10 0 6 5 10 10 10 6 0 10 -4 10 -10z
m1963 1 c21 -8 26 -17 29 -63 8 -96 -24 -129 -62 -65 -22 36 -27 106 -8 125
14 14 11 14 41 3z m-177 -36 c2 -21 -1 -24 -12 -14 -11 9 -11 15 -3 25 15 18
14 18 15 -11z m76 -15 c10 -10 14 -26 11 -38 -3 -11 -1 -28 5 -38 9 -16 1 -79
-12 -91 -3 -3 -16 -6 -28 -7 -42 -2 -59 58 -44 155 6 42 9 46 29 41 12 -3 30
-13 39 -22z m-1867 -4 c15 -16 19 -29 14 -38 -5 -7 -9 -28 -9 -46 0 -38 -28
-92 -46 -92 -31 0 -44 31 -41 96 1 35 5 64 10 64 4 0 7 6 7 14 0 13 13 23 34
25 5 1 19 -10 31 -23z m1546 -26 c5 0 9 -9 9 -19 0 -11 5 -21 10 -23 6 -2 -3
-24 -19 -51 -24 -36 -36 -46 -54 -45 -19 2 -23 7 -20 28 6 36 57 142 61 124 2
-8 8 -14 13 -14z m-1211 -116 c0 -15 -26 -25 -45 -17 -40 15 -63 128 -27 135
12 3 24 -10 44 -51 15 -31 27 -61 28 -67z"/>
<path d="M1535 1299 c-5 -7 5 -8 32 -3 51 9 54 14 10 14 -20 0 -39 -5 -42 -11z"/>
<path d="M1430 1270 c20 -13 33 -13 25 0 -3 6 -14 10 -23 10 -15 0 -15 -2 -2
-10z"/>
<path d="M1427 1244 c-8 -8 1 -24 14 -24 5 0 9 7 9 15 0 15 -12 20 -23 9z"/>
<path d="M1547 1244 c-8 -8 1 -24 14 -24 5 0 9 7 9 15 0 15 -12 20 -23 9z"/>
</g>
</svg>
